# xmcd CD database file
#
# Track frame offsets:
#	150
#	22522
#	35986
#	53078
#	69307
#	82019
#	107973
#	120084
#	134879
#	153127
#	166220
#	182543
#	193275
#	205484
#	218143
#	231237
#	244084
#	277733
#	289678
#
# Disc length: 4131 seconds
#
# Revision: 0
# Processed by: cddbd v1.5.1PL2 Copyright (c) Steve Scherf et al.
# Submitted via: CDex 1.50Beta6
#
DISCID=0d102113
DTITLE=Mitchell John - Mitchell John Live At The Alberta Bair Theater
DYEAR=2005
DGENRE=Country
TTITLE0=Hundred Steers From Now
TTITLE1=I Couldn't Love Her Anymore
TTITLE2=Faith Ain't Faith
TTITLE3=Dreamin' Home
TTITLE4=Needle In A Haystack
TTITLE5=For The Good Times
TTITLE6=I'd Rather Be Lucky
TTITLE7=Dear John Deere
TTITLE8=Always On My Mind
TTITLE9=Early Morning Rain
TTITLE10=Hold On To The Rock
TTITLE11=By The Time I Get To Phoenix
TTITLE12=I Get Along With You
TTITLE13=Hell On Saturday Night
TTITLE14=That's Alright Mama
TTITLE15=Rollin' With The Flow
TTITLE16=Too Many Highways
TTITLE17=I Have To Say I Love You In A Song
TTITLE18=Can't Help Falling In Love
EXTD=YEAR: 2005
EXTT0=
EXTT1=
EXTT2=
EXTT3=
EXTT4=
EXTT5=
EXTT6=
EXTT7=
EXTT8=
EXTT9=
EXTT10=
EXTT11=
EXTT12=
EXTT13=
EXTT14=
EXTT15=
EXTT16=
EXTT17=
EXTT18=
PLAYORDER=
